[Header]
FileType HTR
DataType HTRS
FileVersion 1
NumSegments 64
NumFrames 4
DataFrameRate 24
EulerRotationOrder ZYX
CalibrationUnits mm
RotationUnits Degrees
GlobalAxisofGravity Y
BoneLengthAxis Y
ScaleFactor 1.0
[SegmentNames&Hierarchy]
Hips	GLOBAL
Spine	Hips
Spine1	Spine
Spine2	Spine1
Neck	Spine2
Head	Neck
LeftEye	Head
RightEye	Head
LeftShoulder	Spine2
LeftArm	LeftShoulder
LeftForeArm	LeftArm
LeftHand	LeftForeArm
LeftHandThumb1	LeftHand
LeftHandThumb2	LeftHandThumb1
LeftHandThumb3	LeftHandThumb2
LeftHandThumb4	LeftHandThumb3
LeftHandIndex1	LeftHand
LeftHandIndex2	LeftHandIndex1
LeftHandIndex3	LeftHandIndex2
LeftHandIndex4	LeftHandIndex3
LeftHandMiddle1	LeftHand
LeftHandMiddle2	LeftHandMiddle1
LeftHandMiddle3	LeftHandMiddle2
LeftHandMiddle4	LeftHandMiddle3
LeftHandRing1	LeftHand
LeftHandRing2	LeftHandRing1
LeftHandRing3	LeftHandRing2
LeftHandRing4	LeftHandRing3
LeftHandPinky1	LeftHand
LeftHandPinky2	LeftHandPinky1
LeftHandPinky3	LeftHandPinky2
LeftHandPinky4	LeftHandPinky3
RightShoulder	Spine2
RightArm	RightShoulder
RightForeArm	RightArm
RightHand	RightForeArm
RightHandPinky1	RightHand
RightHandPinky2	RightHandPinky1
RightHandPinky3	RightHandPinky2
RightHandPinky4	RightHandPinky3
RightHandRing1	RightHand
RightHandRing2	RightHandRing1
RightHandRing3	RightHandRing2
RightHandRing4	RightHandRing3
RightHandMiddle1	RightHand
RightHandMiddle2	RightHandMiddle1
RightHandMiddle3	RightHandMiddle2
RightHandMiddle4	RightHandMiddle3
RightHandIndex1	RightHand
RightHandIndex2	RightHandIndex1
RightHandIndex3	RightHandIndex2
RightHandIndex4	RightHandIndex3
RightHandThumb1	RightHand
RightHandThumb2	RightHandThumb1
RightHandThumb3	RightHandThumb2
RightHandThumb4	RightHandThumb3
LeftUpLeg	Hips
LeftLeg	LeftUpLeg
LeftFoot	LeftLeg
LeftToeBase	LeftFoot
RightUpLeg	Hips
RightLeg	RightUpLeg
RightFoot	RightLeg
RightToeBase	RightFoot
[BasePosition]
Hips	0	0	0	0	0	0	1
Spine	0	0	0	0	0	0	1
Spine1	0	0	0	0	0	0	1
Spine2	0	0	0	0	0	0	1
Neck	0	0	0	0	0	0	1
Head	0	0	0	0	0	0	1
LeftEye	0	0	0	0	0	0	1
RightEye	0	0	0	0	0	0	1
LeftShoulder	0	0	0	0	0	0	1
LeftArm	0	0	0	0	0	0	1
LeftForeArm	0	0	0	0	0	0	1
LeftHand	0	0	0	0	0	0	1
LeftHandThumb1	0	0	0	0	0	0	1
LeftHandThumb2	0	0	0	0	0	0	1
LeftHandThumb3	0	0	0	0	0	0	1
LeftHandThumb4	0	0	0	0	0	0	1
LeftHandIndex1	0	0	0	0	0	0	1
LeftHandIndex2	0	0	0	0	0	0	1
LeftHandIndex3	0	0	0	0	0	0	1
LeftHandIndex4	0	0	0	0	0	0	1
LeftHandMiddle1	0	0	0	0	0	0	1
LeftHandMiddle2	0	0	0	0	0	0	1
LeftHandMiddle3	0	0	0	0	0	0	1
LeftHandMiddle4	0	0	0	0	0	0	1
LeftHandRing1	0	0	0	0	0	0	1
LeftHandRing2	0	0	0	0	0	0	1
LeftHandRing3	0	0	0	0	0	0	1
LeftHandRing4	0	0	0	0	0	0	1
LeftHandPinky1	0	0	0	0	0	0	1
LeftHandPinky2	0	0	0	0	0	0	1
LeftHandPinky3	0	0	0	0	0	0	1
LeftHandPinky4	0	0	0	0	0	0	1
RightShoulder	0	0	0	0	0	0	1
RightArm	0	0	0	0	0	0	1
RightForeArm	0	0	0	0	0	0	1
RightHand	0	0	0	0	0	0	1
RightHandPinky1	0	0	0	0	0	0	1
RightHandPinky2	0	0	0	0	0	0	1
RightHandPinky3	0	0	0	0	0	0	1
RightHandPinky4	0	0	0	0	0	0	1
RightHandRing1	0	0	0	0	0	0	1
RightHandRing2	0	0	0	0	0	0	1
RightHandRing3	0	0	0	0	0	0	1
RightHandRing4	0	0	0	0	0	0	1
RightHandMiddle1	0	0	0	0	0	0	1
RightHandMiddle2	0	0	0	0	0	0	1
RightHandMiddle3	0	0	0	0	0	0	1
RightHandMiddle4	0	0	0	0	0	0	1
RightHandIndex1	0	0	0	0	0	0	1
RightHandIndex2	0	0	0	0	0	0	1
RightHandIndex3	0	0	0	0	0	0	1
RightHandIndex4	0	0	0	0	0	0	1
RightHandThumb1	0	0	0	0	0	0	1
RightHandThumb2	0	0	0	0	0	0	1
RightHandThumb3	0	0	0	0	0	0	1
RightHandThumb4	0	0	0	0	0	0	1
LeftUpLeg	0	0	0	0	0	0	1
LeftLeg	0	0	0	0	0	0	1
LeftFoot	0	0	0	0	0	0	1
LeftToeBase	0	0	0	0	0	0	1
RightUpLeg	0	0	0	0	0	0	1
RightLeg	0	0	0	0	0	0	1
RightFoot	0	0	0	0	0	0	1
RightToeBase	0	0	0	0	0	0	1
[Hips]
114	8.051887512	1016.75354	18.95308876	-0.7707675695	1.413172483	-5.537842274	1.0
115	8.221811295	1016.799072	18.91300964	-0.7741391659	1.414924741	-5.534620285	1.0
116	8.390729904	1016.845581	18.86612892	-0.7779870033	1.416608691	-5.530975342	1.0
117	8.553571701	1016.890747	18.80871964	-0.7822644711	1.418060064	-5.527825356	1.0
[Spine]
114	0	101.8159943	1.315000057	1.087658405	-1.304923534	2.986103535	1.0
115	0	101.8159943	1.315000057	1.065224767	-1.308141351	2.981168747	1.0
116	0	101.8159943	1.315000057	1.042687893	-1.312054038	2.976355553	1.0
117	0	101.8159943	1.315000057	1.020525932	-1.317003131	2.971612215	1.0
[Spine1]
114	0	100.8349991	-10.00800037	0.4683458209	0.1589128971	5.934123516	1.0
115	0	100.8349991	-10.00800037	0.4324348867	0.1555825323	5.934979916	1.0
116	0	100.8349991	-10.00800037	0.396047771	0.152077958	5.935626984	1.0
117	0	100.8349991	-10.00800037	0.3590325415	0.148349613	5.935789585	1.0
[Spine2]
114	0	91	-13.73399925	0.5015237331	0.7040604949	5.845285416	1.0
115	0	91	-13.73399925	0.4654245079	0.7043761611	5.845743656	1.0
116	0	91	-13.73399925	0.4288462698	0.7045631409	5.845984936	1.0
117	0	91	-13.73399925	0.3916375339	0.7045611143	5.845732212	1.0
[Neck]
114	0	166.7169952	-25.16200066	1.064114809	-0.248332426	-2.213963985	1.0
115	0	166.7169952	-25.16200066	1.061771989	-0.2453317344	-2.223051786	1.0
116	0	166.7169952	-25.16200066	1.059326649	-0.2425479889	-2.23119688	1.0
117	0	166.7169952	-25.16200066	1.0572505	-0.2406532466	-2.237140656	1.0
[Head]
114	0	96.17900085	16.84999847	1.457392812	0.7604707479	-8.110389709	1.0
115	0	96.17900085	16.84999847	1.473006248	0.7707469463	-8.133767128	1.0
116	0	96.17900085	16.84999847	1.486235261	0.7802575827	-8.155202866	1.0
117	0	96.17900085	16.84999847	1.495771646	0.7859323025	-8.170297623	1.0
[LeftEye]
114	30.6760006	64.09500122	92.83599854	0	0	0	1.0
115	30.6760006	64.09500122	92.83599854	0	0	0	1.0
116	30.6760006	64.09500122	92.83599854	0	0	0	1.0
117	30.6760006	64.09500122	92.83599854	0	0	0	1.0
[RightEye]
114	-30.6760006	64.09500122	92.83499908	0	0	0	1.0
115	-30.6760006	64.09500122	92.83499908	0	0	0	1.0
116	-30.6760006	64.09500122	92.83499908	0	0	0	1.0
117	-30.6760006	64.09500122	92.83499908	0	0	0	1.0
[LeftShoulder]
114	45.70400238	109.4599991	-26.28000069	4.840587139	-13.4588995	-3.595179796	1.0
115	45.70400238	109.4599991	-26.28000069	4.832997322	-13.46822262	-3.273254156	1.0
116	45.70400238	109.4599991	-26.28000069	4.825115681	-13.47769833	-2.946666956	1.0
117	45.70400238	109.4599991	-26.28000069	4.816595554	-13.48825264	-2.614847898	1.0
[LeftArm]
114	105.923996	-5.24600029	-22.32099915	-3.245954514	4.270190716	-86.20140076	1.0
115	105.923996	-5.24600029	-22.32099915	-3.232012272	4.294778824	-86.53554535	1.0
116	105.923996	-5.24600029	-22.32099915	-3.218971252	4.320037365	-86.87584686	1.0
117	105.923996	-5.24600029	-22.32099915	-3.208784819	4.344316006	-87.22362518	1.0
[LeftForeArm]
114	278.414978	-0.0009999999311	0	1.305475962e-06	-14.50935173	-0.0002366064	1.0
115	278.414978	-0.0009999999311	0	4.410112979e-06	-14.51299477	-0.0002477581147	1.0
116	278.414978	-0.0009999999311	0	7.273578831e-06	-14.51627636	-0.0002561554429	1.0
117	278.414978	-0.0009999999311	0	8.95307312e-06	-14.5181427	-0.0002585582261	1.0
[LeftHand]
114	283.2879944	0	0	-27.83504295	-1.020124555	-10.03740788	1.0
115	283.2879944	0	0	-27.85496902	-1.014671445	-10.03795147	1.0
116	283.2879944	0	0	-27.87432671	-1.011005878	-10.0392437	1.0
117	283.2879944	0	0	-27.89040756	-1.008302927	-10.04121876	1.0
[LeftHandThumb1]
114	24.6609993	-15.75	26.8239994	18.92310333	-1.834460258	11.73217106	1.0
115	24.6609993	-15.75	26.8239994	18.8387661	-2.01912117	11.59218693	1.0
116	24.6609993	-15.75	26.8239994	18.75369453	-2.206254482	11.45056915	1.0
117	24.6609993	-15.75	26.8239994	18.66828918	-2.395144939	11.30790138	1.0
[LeftHandThumb2]
114	32.29800034	-18.64699936	18.64699936	0.6102214456	35.32274628	-2.182245255	1.0
115	32.29800034	-18.64699936	18.64699936	0.5123945475	35.08802795	-2.24127388	1.0
116	32.29800034	-18.64699936	18.64699936	0.4134962261	34.85034943	-2.300919056	1.0
117	32.29800034	-18.64699936	18.64699936	0.3139445782	34.61065292	-2.360926151	1.0
[LeftHandThumb3]
114	26.52600098	-15.31499958	15.31499958	2.80643034	11.86586571	0.6399073005	1.0
115	26.52600098	-15.31499958	15.31499958	2.738875628	11.63185501	0.5777485371	1.0
116	26.52600098	-15.31499958	15.31499958	2.670604944	11.39487267	0.5149499774	1.0
117	26.52600098	-15.31499958	15.31499958	2.601912022	11.15585327	0.4517873526	1.0
[LeftHandThumb4]
114	19.54599953	-11.28499985	11.28499985	0	0	0	1.0
115	19.54599953	-11.28499985	11.28499985	0	0	0	1.0
116	19.54599953	-11.28499985	11.28499985	0	0	0	1.0
117	19.54599953	-11.28499985	11.28499985	0	0	0	1.0
[LeftHandIndex1]
114	91.09299469	-5.170999527	22.60099792	-0.4421392083	4.830379486	-9.544905663	1.0
115	91.09299469	-5.170999527	22.60099792	-0.439401716	4.827366829	-9.512374878	1.0
116	91.09299469	-5.170999527	22.60099792	-0.4366306365	4.824314594	-9.47943306	1.0
117	91.09299469	-5.170999527	22.60099792	-0.4338372052	4.821235657	-9.446212769	1.0
[LeftHandIndex2]
114	36.76399994	0	0	-0.7125132084	2.920962572	-22.27031708	1.0
115	36.76399994	0	0	-0.7108588219	2.918106556	-22.23783875	1.0
116	36.76399994	0	0	-0.7091844678	2.915215015	-22.20495415	1.0
117	36.76399994	0	0	-0.7074968815	2.912299156	-22.17179298	1.0
[LeftHandIndex3]
114	28.83100128	0	0	-0.1423005015	0.9727309346	-11.86444092	1.0
115	28.83100128	0	0	-0.141631797	0.9695404768	-11.83202839	1.0
116	28.83100128	0	0	-0.1409551352	0.9663100243	-11.79921055	1.0
117	28.83100128	0	0	-0.1402731389	0.9630526304	-11.76611805	1.0
[LeftHandIndex4]
114	23.92700005	0	0	0	0	0	1.0
115	23.92700005	0	0	0	0	0	1.0
116	23.92700005	0	0	0	0	0	1.0
117	23.92700005	0	0	0	0	0	1.0
[LeftHandMiddle1]
114	95.33399963	0	0	-1.73018837	8.798810005	-17.59692192	1.0
115	95.33399963	0	0	-1.726163745	8.796545029	-17.56409073	1.0
116	95.33399963	0	0	-1.72208941	8.794249535	-17.53084564	1.0
117	95.33399963	0	0	-1.717981815	8.791934013	-17.49732018	1.0
[LeftHandMiddle2]
114	36.98199844	0	0	-1.545616984	3.948180199	-35.12136841	1.0
115	36.98199844	0	0	-1.543310523	3.9458251	-35.08876419	1.0
116	36.98199844	0	0	-1.54097569	3.94343996	-35.05574799	1.0
117	36.98199844	0	0	-1.538621545	3.941034555	-35.02245712	1.0
[LeftHandMiddle3]
114	29.50900078	0	0	-0.1904596388	1.64908123	-13.95933437	1.0
115	29.50900078	0	0	-0.1896220148	1.645967007	-13.92691517	1.0
116	29.50900078	0	0	-0.1887746304	1.642813206	-13.89408684	1.0
117	29.50900078	0	0	-0.1879208982	1.639631987	-13.86098289	1.0
[LeftHandMiddle4]
114	28.3390007	0	0	0	0	0	1.0
115	28.3390007	0	0	0	0	0	1.0
116	28.3390007	0	0	0	0	0	1.0
117	28.3390007	0	0	0	0	0	1.0
[LeftHandRing1]
114	91.04499817	-0.4390000105	-18.65100098	-3.388349056	11.66052437	-29.69598389	1.0
115	91.04499817	-0.4390000105	-18.65100098	-3.35443902	11.64879322	-29.44428444	1.0
116	91.04499817	-0.4390000105	-18.65100098	-3.320124149	11.63685226	-29.18942833	1.0
117	91.04499817	-0.4390000105	-18.65100098	-3.285544634	11.62473488	-28.93243027	1.0
[LeftHandRing2]
114	31.54000092	0	0	-1.367667675	4.262207508	-42.90960693	1.0
115	31.54000092	0	0	-1.351626396	4.243536472	-42.66062546	1.0
116	31.54000092	0	0	-1.335418463	4.224601746	-42.40851974	1.0
117	31.54000092	0	0	-1.319114447	4.205472469	-42.15428925	1.0
[LeftHandRing3]
114	29.37700081	0	0	-0.1617967933	2.161347866	-22.02301025	1.0
115	29.37700081	0	0	-0.1549085081	2.137755156	-21.77600861	1.0
116	29.37700081	0	0	-0.1479767412	2.113853693	-21.52590942	1.0
117	29.37700081	0	0	-0.1410368234	2.089736462	-21.27369881	1.0
[LeftHandRing4]
114	26.47500038	0	0	0	0	0	1.0
115	26.47500038	0	0	0	0	0	1.0
116	26.47500038	0	0	0	0	0	1.0
117	26.47500038	0	0	0	0	0	1.0
[LeftHandPinky1]
114	80.77799988	-4.887000084	-38.06099701	-5.99972868	16.11755371	-39.70891571	1.0
115	80.77799988	-4.887000084	-38.06099701	-5.927820206	16.11734581	-39.45078659	1.0
116	80.77799988	-4.887000084	-38.06099701	-5.855019569	16.11707115	-39.18941879	1.0
117	80.77799988	-4.887000084	-38.06099701	-5.781617641	16.11671638	-38.9258461	1.0
[LeftHandPinky2]
114	36	0	0	-2.152323008	3.989476204	-48.3599968	1.0
115	36	0	0	-2.132984638	3.974055767	-48.11194229	1.0
116	36	0	0	-2.113431454	3.958405972	-47.86076736	1.0
117	36	0	0	-2.093746185	3.942583799	-47.60748291	1.0
[LeftHandPinky3]
114	21.14200211	0	0	-0.664896667	3.073962927	-23.21629715	1.0
115	21.14200211	0	0	-0.6532604098	3.052109003	-22.96896362	1.0
116	21.14200211	0	0	-0.6415182948	3.02995944	-22.71852875	1.0
117	21.14200211	0	0	-0.6297246218	3.007597685	-22.46598244	1.0
[LeftHandPinky4]
114	19.75699997	0	0	0	0	0	1.0
115	19.75699997	0	0	0	0	0	1.0
116	19.75699997	0	0	0	0	0	1.0
117	19.75699997	0	0	0	0	0	1.0
[RightShoulder]
114	-45.70000076	109.4620056	-26.28000069	5.207023621	2.816917896	3.380116224	1.0
115	-45.70000076	109.4620056	-26.28000069	5.259406567	2.816654921	3.073213339	1.0
116	-45.70000076	109.4620056	-26.28000069	5.312395096	2.816690922	2.763001919	1.0
117	-45.70000076	109.4620056	-26.28000069	5.365782261	2.815875769	2.449610949	1.0
[RightArm]
114	-105.9280014	-5.248000145	-22.32099915	0.3075823188	1.62774992	69.71331787	1.0
115	-105.9280014	-5.248000145	-22.32099915	0.3192665577	1.61064589	70.02194977	1.0
116	-105.9280014	-5.248000145	-22.32099915	0.3319045901	1.593641877	70.3340683	1.0
117	-105.9280014	-5.248000145	-22.32099915	0.3463382125	1.579506636	70.64959717	1.0
[RightForeArm]
114	-278.414978	0	0	7.121443559e-06	17.67233467	3.634002132e-05	1.0
115	-278.414978	0	0	7.679720511e-06	17.67419434	3.447831841e-05	1.0
116	-278.414978	0	0	7.672546417e-06	17.67629242	3.177577673e-05	1.0
117	-278.414978	0	0	6.694850072e-06	17.67720413	2.778204725e-05	1.0
[RightHand]
114	-283.2879944	0	0.0009999999311	-12.5720005	-6.798623085	11.80817223	1.0
115	-283.2879944	0	0.0009999999311	-12.56354427	-6.783304691	11.79900646	1.0
116	-283.2879944	0	0.0009999999311	-12.55609608	-6.768491268	11.78981209	1.0
117	-283.2879944	0	0.0009999999311	-12.54822063	-6.756208897	11.78190899	1.0
[RightHandPinky1]
114	-80.76699829	-4.885000229	-38.06000137	-5.999615669	-16.11862564	39.70924759	1.0
115	-80.76699829	-4.885000229	-38.06000137	-5.927710533	-16.11841774	39.45111847	1.0
116	-80.76699829	-4.885000229	-38.06000137	-5.854912281	-16.11814308	39.18975067	1.0
117	-80.76699829	-4.885000229	-38.06000137	-5.781512737	-16.11779213	38.92617798	1.0
[RightHandPinky2]
114	-36	0	0.0009999999311	-2.15086174	-3.987823963	48.35996246	1.0
115	-36	0	0.0009999999311	-2.131529093	-3.972402573	48.11190414	1.0
116	-36	0	0.0009999999311	-2.111982107	-3.956752062	47.86072922	1.0
117	-36	0	0.0009999999311	-2.092303991	-3.940927982	47.60744095	1.0
[RightHandPinky3]
114	-21.14200211	0	0	-0.8934323192	-0.181921348	24.8068428	1.0
115	-21.14200211	0	0	-0.8812129498	-0.1603997052	24.56009865	1.0
116	-21.14200211	0	0	-0.8688793182	-0.1385856122	24.31025505	1.0
117	-21.14200211	0	0	-0.8564875722	-0.1165615767	24.05830193	1.0
[RightHandPinky4]
114	-19.75699997	0	0	0	0	0	1.0
115	-19.75699997	0	0	0	0	0	1.0
116	-19.75699997	0	0	0	0	0	1.0
117	-19.75699997	0	0	0	0	0	1.0
[RightHandRing1]
114	-91.03599548	-0.4390000105	-18.65100098	-3.388253212	-11.66012764	29.69611168	1.0
115	-91.03599548	-0.4390000105	-18.65100098	-3.354346514	-11.64839935	29.44441986	1.0
116	-91.03599548	-0.4390000105	-18.65100098	-3.320034504	-11.63646126	29.18957329	1.0
117	-91.03599548	-0.4390000105	-18.65100098	-3.285457611	-11.62434769	28.93258095	1.0
[RightHandRing2]
114	-31.54000092	0	0	-1.367459059	-4.261664867	42.90965652	1.0
115	-31.54000092	0	0	-1.35141933	-4.242995262	42.6606636	1.0
116	-31.54000092	0	0	-1.335212708	-4.224061489	42.40854645	1.0
117	-31.54000092	0	0	-1.318910241	-4.204933643	42.15430832	1.0
[RightHandRing3]
114	-29.37700081	0	0	-0.2009293586	-0.1696303636	20.49793625	1.0
115	-29.37700081	0	0	-0.1946763098	-0.1458674073	20.25117874	1.0
116	-29.37700081	0	0	-0.1883881837	-0.1217946559	20.0013237	1.0
117	-29.37700081	0	0	-0.1820982099	-0.09750570357	19.74935722	1.0
[RightHandRing4]
114	-26.47500038	0	0	0	0	0	1.0
115	-26.47500038	0	0	0	0	0	1.0
116	-26.47500038	0	0	0	0	0	1.0
117	-26.47500038	0	0	0	0	0	1.0
[RightHandMiddle1]
114	-95.32500458	0	0	-1.730159879	-8.798567772	17.59705162	1.0
115	-95.32500458	0	0	-1.726137042	-8.796302795	17.56421661	1.0
116	-95.32500458	0	0	-1.722064376	-8.794009209	17.53097153	1.0
117	-95.32500458	0	0	-1.717958093	-8.791695595	17.49744415	1.0
[RightHandMiddle2]
114	-36.98199844	0	0	-1.545471191	-3.947723389	35.12140656	1.0
115	-36.98199844	0	0	-1.543164968	-3.94536972	35.08882141	1.0
116	-36.98199844	0	0	-1.540830374	-3.942985773	35.05582428	1.0
117	-36.98199844	0	0	-1.538476825	-3.940580606	35.02254868	1.0
[RightHandMiddle3]
114	-29.50900078	0	0	-0.3051776886	-1.838701248	17.59435272	1.0
115	-29.50900078	0	0	-0.3041439354	-1.835646152	17.56191826	1.0
116	-29.50900078	0	0	-0.3030977249	-1.832552433	17.52907562	1.0
117	-29.50900078	0	0	-0.3020434082	-1.82943213	17.49595833	1.0
[RightHandMiddle4]
114	-28.3390007	0	0.0009999999311	0	0	0	1.0
115	-28.3390007	0	0.0009999999311	0	0	0	1.0
116	-28.3390007	0	0.0009999999311	0	0	0	1.0
117	-28.3390007	0	0.0009999999311	0	0	0	1.0
[RightHandIndex1]
114	-91.08300018	-5.167999744	22.60099792	-0.4421309829	-4.830245972	9.544955254	1.0
115	-91.08300018	-5.167999744	22.60099792	-0.4393950701	-4.827233791	9.512431145	1.0
116	-91.08300018	-5.167999744	22.60099792	-0.436625421	-4.824182034	9.47949791	1.0
117	-91.08300018	-5.167999744	22.60099792	-0.4338328242	-4.821103573	9.446285248	1.0
[RightHandIndex2]
114	-36.76399994	0	0	-0.7124532461	-2.920665741	22.27036667	1.0
115	-36.76399994	0	0	-0.7107990384	-2.917809963	22.23788452	1.0
116	-36.76399994	0	0	-0.7091246843	-2.914917946	22.2049942	1.0
117	-36.76399994	0	0	-0.7074371576	-2.912001133	22.17182732	1.0
[RightHandIndex3]
114	-28.83100128	0	0	-0.2817011774	-0.322198838	15.53813076	1.0
115	-28.83100128	0	0	-0.2808290124	-0.3190595508	15.50572872	1.0
116	-28.83100128	0	0	-0.2799467444	-0.3158806264	15.47291946	1.0
117	-28.83100128	0	0	-0.27905792	-0.3126747012	15.43983555	1.0
[RightHandIndex4]
114	-23.92700005	0	0	0	0	0	1.0
115	-23.92700005	0	0	0	0	0	1.0
116	-23.92700005	0	0	0	0	0	1.0
117	-23.92700005	0	0	0	0	0	1.0
[RightHandThumb1]
114	-24.64799881	-15.72700024	26.82600021	18.92279816	1.834646821	-11.73236656	1.0
115	-24.64799881	-15.72700024	26.82600021	18.83845711	2.019312859	-11.59239006	1.0
116	-24.64799881	-15.72700024	26.82600021	18.75338364	2.206450939	-11.45077896	1.0
117	-24.64799881	-15.72700024	26.82600021	18.66797447	2.395345926	-11.30811691	1.0
[RightHandThumb2]
114	-32.29800034	-18.64699936	18.64699936	0.6093670726	-35.32144165	2.184141636	1.0
115	-32.29800034	-18.64699936	18.64699936	0.5115448833	-35.08671951	2.243182421	1.0
116	-32.29800034	-18.64699936	18.64699936	0.41265136	-34.84904099	2.302836657	1.0
117	-32.29800034	-18.64699936	18.64699936	0.3131060004	-34.60934448	2.36284399	1.0
[RightHandThumb3]
114	-26.52600098	-15.31399918	15.31399918	2.545823097	-11.02197075	0.1882941574	1.0
115	-26.52600098	-15.31399918	15.31399918	2.481918573	-10.78702641	0.2487722039	1.0
116	-26.52600098	-15.31399918	15.31399918	2.417337656	-10.54910183	0.3098781705	1.0
117	-26.52600098	-15.31399918	15.31399918	2.352358103	-10.30913353	0.3713475168	1.0
[RightHandThumb4]
114	-19.54599953	-11.28499985	11.28499985	0	0	0	1.0
115	-19.54599953	-11.28499985	11.28499985	0	0	0	1.0
116	-19.54599953	-11.28499985	11.28499985	0	0	0	1.0
117	-19.54599953	-11.28499985	11.28499985	0	0	0	1.0
[LeftUpLeg]
114	82.07800293	-67.51699829	-15.99599934	-17.67054558	15.13082123	12.00840473	1.0
115	82.07800293	-67.51699829	-15.99599934	-17.66466331	15.12692738	11.99730015	1.0
116	82.07800293	-67.51699829	-15.99599934	-17.65755081	15.12284374	11.98574638	1.0
117	82.07800293	-67.51699829	-15.99599934	-17.64984703	15.11880684	11.9747057	1.0
[LeftLeg]
114	0	-443.7049866	2.845999956	25.29362488	7.719138622	6.229847431	1.0
115	0	-443.7049866	2.845999956	25.28476524	7.72080946	6.223864555	1.0
116	0	-443.7049866	2.845999956	25.27392006	7.72266674	6.217510223	1.0
117	0	-443.7049866	2.845999956	25.26170921	7.724473953	6.211249828	1.0
[LeftFoot]
114	0	-444.2789917	-29.8219986	-4.361518383	2.773494959	-11.24127293	1.0
115	0	-444.2789917	-29.8219986	-4.353598118	2.777226448	-11.23888874	1.0
116	0	-444.2789917	-29.8219986	-4.346245289	2.781817913	-11.23601151	1.0
117	0	-444.2789917	-29.8219986	-4.340108395	2.78711009	-11.23243809	1.0
[LeftToeBase]
114	0	-87.28699493	107.1060028	-0.4738204181	9.496960956e-06	-5.989725196e-06	1.0
115	0	-87.28699493	107.1060028	-0.4756927192	1.154657821e-05	-4.826004442e-06	1.0
116	0	-87.28699493	107.1060028	-0.4780327678	1.235265063e-05	-3.447132258e-06	1.0
117	0	-87.28699493	107.1060028	-0.4805541337	1.167622304e-05	-2.137536285e-06	1.0
[RightUpLeg]
114	-82.07800293	-67.51699829	-15.99599934	-1.903425455	-4.564577579	10.92414856	1.0
115	-82.07800293	-67.51699829	-15.99599934	-1.896731496	-4.565057755	10.91292763	1.0
116	-82.07800293	-67.51699829	-15.99599934	-1.890140533	-4.565594673	10.90135765	1.0
117	-82.07800293	-67.51699829	-15.99599934	-1.884064436	-4.565849781	10.89065647	1.0
[RightLeg]
114	0	-443.7049866	2.861999989	11.20463562	-5.386996746	2.207224607	1.0
115	0	-443.7049866	2.861999989	11.19278049	-5.386713982	2.201148987	1.0
116	0	-443.7049866	2.861999989	11.1812706	-5.386734486	2.194900036	1.0
117	0	-443.7049866	2.861999989	11.17031384	-5.387413979	2.188658714	1.0
[RightFoot]
114	0	-444.2770081	-29.83799934	-9.728333473	-0.3265914321	-7.849336147	1.0
115	0	-444.2770081	-29.83799934	-9.718418121	-0.32466802	-7.835283279	1.0
116	0	-444.2770081	-29.83799934	-9.708300591	-0.3226948082	-7.82123518	1.0
117	0	-444.2770081	-29.83799934	-9.697906494	-0.3206943274	-7.807709217	1.0
[RightToeBase]
114	0	-87.28699493	107.1060028	-0.6014124155	3.120144356e-06	-1.185018846e-06	1.0
115	0	-87.28699493	107.1060028	-0.607535243	5.627300652e-06	-2.017422048e-06	1.0
116	0	-87.28699493	107.1060028	-0.6128292084	7.513367109e-06	-2.896252909e-06	1.0
117	0	-87.28699493	107.1060028	-0.6157391667	8.152604096e-06	-3.539318413e-06	1.0
[EndOfFile]
